HIERARCHY
ROOT Hips
{
	OFFSET 0.000000 0.000000 0.000000
	CHANNELS 6 Xposition Yposition Zposition Zrotation Yrotation Xrotation 
	JOINT LowerBack
	{
		OFFSET 0.000000 0.000000 0.000000
		CHANNELS 3 Zrotation Yrotation Xrotation
		JOINT Spine
		{
			OFFSET 0.028270 2.035590 -0.193380
			CHANNELS 3 Zrotation Yrotation Xrotation
			JOINT Spine1
			{
				OFFSET 0.056720 2.048850 -0.042750
				CHANNELS 3 Zrotation Yrotation Xrotation
				JOINT Neck
				{
					OFFSET 0.000000 0.000000 0.000000
					CHANNELS 3 Zrotation Yrotation Xrotation
					JOINT Neck1
					{
						OFFSET -0.054170 1.746240 0.172020
						CHANNELS 3 Zrotation Yrotation Xrotation
						JOINT Head
						{
							OFFSET 0.104070 1.761360 -0.123970
							CHANNELS 3 Zrotation Yrotation Xrotation
							End Site
							{
								OFFSET 0.000000 0.000000 0.000000
							}
						}
					}
				}
				JOINT LeftShoulder
				{
					OFFSET 0.000000 0.000000 0.000000
					CHANNELS 3 Zrotation Yrotation Xrotation
					JOINT LeftArm
					{
						OFFSET 3.362410 1.200890 -0.311210
						CHANNELS 3 Zrotation Yrotation Xrotation
						JOINT LeftForeArm
						{
							OFFSET 4.983000 -0.000000 -0.000000
							CHANNELS 3 Zrotation Yrotation Xrotation
							JOINT LeftHand
							{
								OFFSET 3.483560 -0.000000 -0.000000
								CHANNELS 3 Zrotation Yrotation Xrotation
								JOINT LeftFingerBase
								{
									OFFSET 0.000000 0.000000 0.000000
									CHANNELS 3 Zrotation Yrotation Xrotation
									JOINT LeftHandIndex1
									{
										OFFSET 0.715260 -0.000000 -0.000000
										CHANNELS 3 Zrotation Yrotation Xrotation
										End Site
										{
											OFFSET 0.000000 0.000000 0.000000
										}
									}
								}
								JOINT LThumb
								{
									OFFSET 0.000000 0.000000 0.000000
									CHANNELS 3 Zrotation Yrotation Xrotation
									End Site
									{
										OFFSET 0.000000 0.000000 0.000000
									}
								}
							}
						}
					}
				}
				JOINT RightShoulder
				{
					OFFSET 0.000000 0.000000 0.000000
					CHANNELS 3 Zrotation Yrotation Xrotation
					JOINT RightArm
					{
						OFFSET -3.136600 1.374050 -0.404650
						CHANNELS 3 Zrotation Yrotation Xrotation
						JOINT RightForeArm
						{
							OFFSET -5.241900 -0.000000 -0.000000
							CHANNELS 3 Zrotation Yrotation Xrotation
							JOINT RightHand
							{
								OFFSET -3.444170 -0.000000 -0.000000
								CHANNELS 3 Zrotation Yrotation Xrotation
								JOINT RightFingerBase
								{
									OFFSET 0.000000 0.000000 0.000000
									CHANNELS 3 Zrotation Yrotation Xrotation
									JOINT RightHandIndex1
									{
										OFFSET -0.622530 -0.000000 -0.000000
										CHANNELS 3 Zrotation Yrotation Xrotation
										End Site
										{
											OFFSET 0.000000 0.000000 0.000000
										}
									}
								}
								JOINT RThumb
								{
									OFFSET 0.000000 0.000000 0.000000
									CHANNELS 3 Zrotation Yrotation Xrotation
									End Site
									{
										OFFSET 0.000000 0.000000 0.000000
									}
								}
							}
						}
					}
				}
			}
		}
	}
}
}
MOTION
Frames: 15
Frame Time: 0.008333
3.761685 17.308852 0.754094 6.383569 -76.184169 5.685122 1.176314 3.259979 -3.611578 0.342499 3.274245 -4.456388 -0.048009 3.399515 -5.477227 -5.820847 3.740471 2.586642 -1.496956 -0.279063 2.890721 0.000000 0.000000 0.000000 2.540335 -1.099898 -3.506271 -91.459398 -22.048192 36.253383 -178.658387 -52.299322 -179.984581 -3.481207 -9.117805 0.341485 0.326051 1.165760 0.000000 0.000000 0.000000 0.000000 0.000000 0.000000 0.000000 -14.571526 9.204587 -0.831755 10.657980 66.785873 -66.533425 -4.971072 13.880948 -0.105334 -14.599929 3.960993 -0.578125 0.225437 -0.476402 -0.000000 0.000000 0.000000 0.000000 0.000000 0.000000 0.000000 
3.763301 17.316198 0.750008 6.328151 -77.246525 5.705805 1.106127 3.500239 -3.726439 0.434655 3.532777 -4.377397 0.589209 3.644352 -5.089122 -6.359238 4.887461 2.420308 -1.357332 -0.267317 2.841372 0.000000 0.000000 0.000000 2.453096 -1.386557 -3.713767 -92.207004 -21.277421 36.280971 -179.004762 -51.739604 -179.991396 -3.374837 -9.269871 0.338658 0.347695 1.164806 0.000000 0.000000 0.000000 0.000000 0.000000 0.000000 0.000000 -15.236414 10.549333 0.534581 2.590458 66.615313 -82.451129 -4.370900 9.669231 -0.095508 -14.278957 6.069922 -0.835145 0.225163 -0.482707 -0.000000 0.000000 0.000000 0.000000 0.000000 0.000000 0.000000 
3.760337 17.322145 0.748320 6.017136 -78.121955 6.006148 1.071848 3.662586 -3.750555 0.475736 3.703609 -4.370353 0.928657 3.812073 -5.061039 -6.595412 5.452868 2.346533 -1.284199 -0.261730 2.821779 0.000000 0.000000 0.000000 2.665137 -1.490412 -3.780700 -92.843338 -20.340297 36.274820 -179.292905 -51.168874 -179.997550 -3.253116 -9.408129 0.333234 0.364157 1.166211 0.000000 0.000000 0.000000 0.000000 0.000000 0.000000 0.000000 -15.683811 11.193067 0.937707 0.745547 66.735061 -89.063901 -4.252695 8.065817 -0.092432 -13.964841 7.515221 -0.998316 0.209339 -0.497199 -0.000000 0.000000 0.000000 0.000000 0.000000 0.000000 0.000000 
3.753564 17.326514 0.749159 5.421811 -78.751022 6.602393 1.081558 3.758339 -3.682630 0.454695 3.796659 -4.428177 0.918332 3.918457 -5.366534 -6.470744 5.233135 2.375000 -1.302968 -0.264206 2.834074 0.000000 0.000000 0.000000 3.172636 -1.460799 -3.699625 -93.316005 -19.337518 36.243303 -179.485795 -50.624979 179.997534 -3.106759 -9.525128 0.324152 0.372558 1.172301 0.000000 0.000000 0.000000 0.000000 0.000000 0.000000 0.000000 -15.748244 11.022514 0.355816 4.806753 67.714665 -86.210141 -4.443436 8.632381 -0.092959 -13.308696 8.619051 -1.083742 0.177712 -0.521500 -0.000000 0.000000 0.000000 0.000000 0.000000 0.000000 0.000000 
3.743634 17.329034 0.752354 4.633586 -79.116398 7.460941 1.172010 3.762887 -3.424054 0.361706 3.781390 -4.577920 0.490416 3.935735 -6.146635 -6.043316 4.309809 2.414608 -1.433807 -0.274406 2.853704 0.000000 0.000000 0.000000 3.992450 -1.108987 -3.480314 -93.589273 -18.236366 36.217113 -179.560220 -50.048276 179.993888 -2.941436 -9.620858 0.311427 0.371533 1.179983 0.000000 0.000000 0.000000 0.000000 0.000000 0.000000 0.000000 -15.455938 9.872762 -1.296845 16.498539 69.373469 -71.714094 -5.348181 11.310679 -0.100394 -12.481059 9.292173 -1.092448 0.127228 -0.561854 0.000000 0.000000 0.000000 0.000000 0.000000 0.000000 0.000000 
3.730683 17.329426 0.757491 3.843100 -79.353315 8.466004 1.403287 3.490601 -2.898953 0.259446 3.466167 -4.779019 -0.207616 3.646264 -7.154421 -5.598144 3.019487 2.016436 -1.716361 -0.284530 2.746623 0.000000 0.000000 0.000000 5.024375 0.167865 -3.284524 -93.611434 -16.970402 36.122610 -179.625750 -49.147725 179.989410 -2.763484 -9.709046 0.296283 0.368643 1.173583 0.000000 0.000000 0.000000 0.000000 0.000000 0.000000 0.000000 -14.654871 7.217544 -3.037582 35.343999 71.907491 -46.838346 -7.525837 15.706560 -0.125986 -12.088652 9.193515 -1.050106 0.051275 -0.643132 -0.000000 0.000000 0.000000 0.000000 0.000000 0.000000 0.000000 
3.715055 17.327641 0.764004 2.984193 -79.520075 9.263154 1.470279 2.919379 -2.821333 0.289759 2.876664 -4.749575 -0.432153 3.035077 -6.900484 -5.029592 1.808882 1.477159 -2.039568 -0.291111 2.578428 0.000000 0.000000 0.000000 5.832642 1.407129 -3.258645 -93.472153 -16.015266 35.702576 -179.901662 -48.245559 179.982871 -2.561105 -9.777551 0.279594 0.379229 1.163621 0.000000 0.000000 0.000000 0.000000 0.000000 0.000000 0.000000 -12.803382 4.569199 -2.877427 49.809617 73.983057 -25.839141 -8.139559 21.400132 -0.155950 -12.242894 8.687346 -1.014443 -0.002634 -0.739624 -0.000000 0.000000 0.000000 0.000000 0.000000 0.000000 0.000000 
3.697100 17.323786 0.771215 2.145342 -79.343803 9.707678 1.236915 2.427826 -3.238988 0.322203 2.404193 -4.642120 -0.398839 2.534623 -6.102930 -4.075062 0.999739 1.653329 -2.262814 -0.304546 2.611608 0.000000 0.000000 0.000000 6.471520 1.538717 -3.118026 -93.266663 -15.446802 35.138779 179.839791 -47.889633 179.978164 -2.341526 -9.795768 0.260586 0.388206 1.177514 0.000000 0.000000 0.000000 0.000000 0.000000 0.000000 0.000000 -10.801513 3.629020 -2.620394 55.333797 71.943048 -13.837095 -6.574279 30.021673 -0.170841 -12.362068 8.540371 -1.011292 -0.028741 -0.789445 -0.000000 0.000000 0.000000 0.000000 0.000000 0.000000 0.000000 
3.677510 17.317938 0.778398 1.538452 -78.913306 9.879439 0.922133 1.968685 -3.693395 0.331468 1.974968 -4.576522 -0.384100 2.084326 -5.470908 -2.994413 0.681884 2.155300 -2.455643 -0.321511 2.739515 0.000000 0.000000 0.000000 7.029868 1.360547 -2.863678 -92.922007 -15.024789 34.540522 179.684597 -47.745027 179.975123 -2.108807 -9.779537 0.238876 0.389562 1.200196 0.000000 0.000000 0.000000 0.000000 0.000000 0.000000 0.000000 -8.879018 3.530498 -2.698280 56.855414 67.697724 -7.132215 -4.594446 41.066944 -0.170404 -11.928929 8.983794 -1.020285 -0.056670 -0.798823 -0.000000 0.000000 0.000000 0.000000 0.000000 0.000000 0.000000 
3.656910 17.310273 0.784899 1.202268 -78.333581 9.832125 0.621335 1.505988 -4.051068 0.322782 1.539653 -4.530018 -0.462302 1.632832 -4.994648 -1.895770 0.693227 2.662084 -2.655883 -0.338110 2.867915 0.000000 0.000000 0.000000 7.530488 1.248957 -2.583886 -92.442678 -14.745994 33.951028 179.637288 -47.646499 179.973393 -1.868129 -9.741122 0.215328 0.382755 1.222922 0.000000 0.000000 0.000000 0.000000 0.000000 0.000000 0.000000 -6.989326 3.689342 -2.805256 57.548621 62.951059 -2.763107 -2.844866 53.011899 -0.158114 -10.835503 9.793032 -0.999320 -0.082113 -0.790156 -0.000000 0.000000 0.000000 0.000000 0.000000 0.000000 0.000000 
3.635880 17.301065 0.790152 1.090795 -77.666544 9.621914 0.354814 1.060296 -4.301799 0.289176 1.114310 -4.485324 -0.668936 1.195858 -4.612313 -0.795469 0.785699 3.072717 -2.861376 -0.352877 2.968608 0.000000 0.000000 0.000000 8.004733 1.262036 -2.320919 -91.877257 -14.660834 33.412593 179.697079 -47.595129 179.972961 -1.626912 -9.687967 0.190817 0.367871 1.244658 0.000000 0.000000 0.000000 0.000000 0.000000 0.000000 0.000000 -5.222381 3.828796 -2.880571 58.490106 58.259325 0.689840 -1.488711 64.715328 -0.139933 -9.306264 10.653611 -0.924191 -0.098452 -0.782702 -0.000000 0.000000 0.000000 0.000000 0.000000 0.000000 0.000000 
3.614789 17.290710 0.793837 1.138009 -76.966906 9.307038 0.117197 0.653535 -4.465983 0.228877 0.720984 -4.434274 -1.001578 0.795491 -4.277823 0.299504 0.757628 3.362769 -3.061785 -0.365415 3.036227 0.000000 0.000000 0.000000 8.477027 1.377580 -2.093972 -91.290944 -14.788072 32.951535 179.849034 -47.618954 179.973702 -1.394651 -9.626984 0.166525 0.346329 1.265819 0.000000 0.000000 0.000000 0.000000 0.000000 0.000000 0.000000 -3.675401 3.787821 -2.951278 59.980612 53.764850 3.811246 -0.540831 75.578615 -0.120977 -7.680479 11.369261 -0.807744 -0.105368 -0.787132 -0.000000 0.000000 0.000000 0.000000 0.000000 0.000000 0.000000 
3.593753 17.279760 0.795898 1.284923 -76.287435 8.942667 -0.096562 0.298563 -4.564207 0.146148 0.373606 -4.374675 -1.440803 0.445565 -3.967945 1.373569 0.509298 3.526797 -3.245432 -0.375498 3.070607 0.000000 0.000000 0.000000 8.961654 1.575873 -1.912507 -90.749687 -15.108752 32.581688 -179.930365 -47.732044 179.975375 -1.180351 -9.566271 0.143736 0.320248 1.286427 0.000000 0.000000 0.000000 0.000000 0.000000 0.000000 0.000000 -2.432018 3.493801 -3.050788 62.090924 49.444882 6.779392 0.039996 85.372377 -0.104206 -6.217198 11.902389 -0.681031 -0.105763 -0.807110 -0.000000 0.000000 0.000000 0.000000 0.000000 0.000000 0.000000 
3.572905 17.268823 0.796527 1.486192 -75.675242 8.574131 -0.282971 0.000493 -4.610745 0.047282 0.077613 -4.307546 -1.970252 0.151437 -3.674920 2.414075 0.017233 3.560151 -3.406254 -0.383090 3.071240 0.000000 0.000000 0.000000 9.470535 1.847294 -1.782745 -90.309200 -15.573834 32.306127 -179.666891 -47.925749 179.977714 -0.991751 -9.512417 0.123336 0.291914 1.306004 0.000000 0.000000 0.000000 0.000000 0.000000 0.000000 0.000000 -1.529124 2.930914 -3.196299 64.780057 45.236551 9.607583 -179.675096 85.961445 179.908795 -5.066818 12.309779 -0.572223 -0.102458 -0.842439 -0.000000 0.000000 0.000000 0.000000 0.000000 0.000000 0.000000 
3.552293 17.258540 0.796112 1.711981 -75.167945 8.234194 -0.430712 -0.241198 -4.615192 -0.060747 -0.167984 -4.234209 -2.578320 -0.087743 -3.394006 3.411738 -0.694763 3.455018 -3.543281 -0.388262 3.036163 0.000000 0.000000 0.000000 10.010694 2.191886 -1.710309 -90.006726 -16.121999 32.118495 -179.384143 -48.176317 179.980482 -0.833198 -9.469960 0.106012 0.263298 1.323820 0.000000 0.000000 0.000000 0.000000 0.000000 0.000000 0.000000 -0.960384 2.120690 -3.382800 67.931197 41.094201 12.252027 -179.590936 78.403718 179.917137 -4.292021 12.665327 -0.498103 -0.097470 -0.890959 -0.000000 0.000000 0.000000 0.000000 0.000000 0.000000 0.000000 
